<svg width="30" height="31" viewBox="0 0 30 31" fill="none" xmlns="http://www.w3.org/2000/svg">
<path d="M5.75084 22.544L6.11049 23.4002C6.36416 23.2961 6.62836 23.2192 6.89857 23.1706L6.73094 22.2585C6.3949 22.3189 6.06634 22.4146 5.75084 22.544V22.544Z" fill="url(#paint0_linear_0_399)"/>
<path d="M3.28835 24.8437L4.1321 25.2476C4.4241 24.6522 4.8683 24.1425 5.42075 23.7689L4.89165 23.0039C4.20429 23.4688 3.65164 24.103 3.28835 24.8437V24.8437Z" fill="url(#paint1_linear_0_399)"/>
<path d="M29.0625 24.5828C29.063 23.785 28.7655 23.015 28.2268 22.4206L27.5283 23.0386C27.8054 23.3442 27.9952 23.7174 28.0781 24.1195H24.8437C24.7666 24.1195 24.6906 24.1384 24.6226 24.1744C24.5545 24.2103 24.4966 24.2624 24.4537 24.3258L22.7179 26.8994H21.5625V25.5095C21.5635 24.6496 21.9095 23.8253 22.5246 23.2173C23.1398 22.6093 23.9738 22.2673 24.8437 22.2663H25.7812C26.2422 22.2655 26.6931 22.3998 27.0769 22.6521L27.596 21.8805C27.1912 21.6142 26.7313 21.4407 26.25 21.3728V19.9498C26.25 19.8269 26.2006 19.709 26.1127 19.6222C26.0248 19.5353 25.9056 19.4865 25.7812 19.4865C25.2841 19.4859 24.8076 19.2905 24.456 18.943C24.1045 18.5956 23.9068 18.1246 23.9062 17.6332V15.78H25.3125C25.4368 15.78 25.556 15.7312 25.644 15.6443C25.7319 15.5574 25.7812 15.4396 25.7812 15.3167V12.0735C25.7812 11.9506 25.7319 11.8328 25.644 11.7459C25.556 11.659 25.4368 11.6102 25.3125 11.6102H24.4857C24.2899 11.6105 24.0949 11.6371 23.9062 11.6891V11.1469C23.9063 11.0417 23.8701 10.9395 23.8035 10.8573L22.2698 8.96241C22.4708 8.62745 22.543 8.23221 22.4734 7.84893C22.4038 7.46565 22.197 7.11993 21.8907 6.87495C21.5845 6.62997 21.1993 6.50209 20.8055 6.51469C20.4118 6.52729 20.0357 6.67952 19.7461 6.94357C19.4566 7.20761 19.2728 7.56584 19.2284 7.95276C19.184 8.33969 19.282 8.72948 19.5044 9.05089C19.7269 9.3723 20.0589 9.60387 20.4398 9.70328C20.8207 9.80268 21.2251 9.76328 21.5791 9.59227L22.9687 11.3094V11.894L20.908 11.2151C20.773 11.1691 20.6311 11.146 20.4883 11.1469H16.6219L14.3965 8.5807C14.5827 8.45284 14.7348 8.28237 14.8399 8.08381C14.945 7.88526 14.9999 7.66452 15 7.44044V7.26345L15.6784 6.92819C15.7378 6.89881 15.7903 6.85727 15.8322 6.80632C15.8742 6.75538 15.9047 6.6962 15.9218 6.6327C15.9388 6.56921 15.942 6.50286 15.9312 6.43805C15.9203 6.37324 15.8956 6.31146 15.8587 6.2568L15.0888 5.11532C15.1957 5.09493 15.2921 5.03839 15.3614 4.95542C15.4308 4.87244 15.4687 4.7682 15.4687 4.66059C15.4679 3.92358 15.1713 3.21701 14.644 2.69587C14.1168 2.17473 13.4019 1.88158 12.6562 1.88074C11.7735 1.88074 10.9562 2.13133 10.3482 2.79531C10.0848 3.08344 9.88532 3.42284 9.76248 3.79171C9.63965 4.16057 9.59622 4.55075 9.63498 4.93718L9.73529 5.9282C9.77749 6.35549 9.98412 6.75044 10.3125 7.03145V15.78C10.3122 16.1055 10.3993 16.4252 10.5647 16.7066H9.84375C9.68404 16.7065 9.5255 16.7335 9.375 16.7863V10.6836C9.37458 10.3151 9.22629 9.9618 8.96266 9.70123C8.69902 9.44066 8.34158 9.29409 7.96875 9.29367H2.34375C1.97092 9.29409 1.61348 9.44066 1.34984 9.70123C1.08621 9.9618 0.937919 10.3151 0.9375 10.6836V13.0001H1.875V12.0735H8.4375V16.7066H1.875V13.9268H0.9375V17.7098C0.937396 17.9269 1.01442 18.137 1.15511 18.3037C1.29581 18.4703 1.49125 18.5828 1.7073 18.6215L6.09375 19.4098V20.497C5.69633 20.588 5.30824 20.715 4.93441 20.8764H2.34375C2.21943 20.8764 2.1002 20.9252 2.01229 21.0121C1.92439 21.099 1.875 21.2168 1.875 21.3397V23.5388C1.26253 24.5553 0.938666 25.7163 0.9375 26.8994C0.9375 27.0223 0.986886 27.1401 1.07479 27.227C1.1627 27.3139 1.28193 27.3627 1.40625 27.3627H3.55494C3.83507 28.0471 4.31562 28.6332 4.93497 29.046C5.55433 29.4587 6.28428 29.6792 7.03125 29.6792C7.77822 29.6792 8.50817 29.4587 9.12753 29.046C9.74688 28.6332 10.2274 28.0471 10.5076 27.3627H18.3891C18.7156 27.3625 19.0385 27.295 19.3371 27.1645C19.6358 27.0339 19.9036 26.8432 20.1234 26.6046L20.625 26.0591V27.3627C20.625 27.4856 20.6744 27.6034 20.7623 27.6903C20.8502 27.7772 20.9694 27.826 21.0937 27.826H22.065C22.4778 28.5326 23.1149 29.0848 23.8775 29.397C24.6402 29.7092 25.4857 29.7639 26.2831 29.5528C27.0804 29.3416 27.785 28.8763 28.2875 28.229C28.7901 27.5817 29.0625 26.7887 29.0625 25.9728C29.0629 25.6179 29.0114 25.2649 28.9098 24.9245C28.9579 24.8812 28.9964 24.8285 29.0227 24.7696C29.049 24.7108 29.0625 24.6472 29.0625 24.5828ZM20.1562 8.1354C20.1562 7.99795 20.1975 7.86359 20.2747 7.7493C20.352 7.63501 20.4618 7.54594 20.5903 7.49334C20.7188 7.44074 20.8602 7.42698 20.9965 7.45379C21.1329 7.48061 21.2582 7.5468 21.3566 7.64399C21.4549 7.74118 21.5219 7.86501 21.549 7.99982C21.5761 8.13463 21.5622 8.27436 21.509 8.40135C21.4558 8.52834 21.3656 8.63688 21.25 8.71324C21.1344 8.7896 20.9984 8.83036 20.8594 8.83036C20.673 8.83016 20.4942 8.75688 20.3624 8.62659C20.2306 8.4963 20.1565 8.31965 20.1562 8.1354V8.1354ZM13.4502 24.5828C12.9911 24.5823 12.551 24.4018 12.2264 24.081C11.9018 23.7602 11.7193 23.3252 11.7187 22.8714C11.7187 22.4166 11.8351 21.9912 12.1418 21.6412C12.4151 21.3301 12.7925 21.1266 13.2051 21.0678C13.7031 20.9976 14.1589 20.7521 14.4886 20.3765C14.8183 20.0009 14.9999 19.5204 15 19.0231C15.0001 18.9623 14.988 18.902 14.9644 18.8457C14.9408 18.7895 14.9062 18.7384 14.8626 18.6954C14.9423 18.5308 14.9883 18.3522 14.998 18.1699C15.0078 17.9876 14.9811 17.8053 14.9194 17.6332H16.1925L14.1355 22.9192C14.0858 23.0465 14.061 23.182 14.0625 23.3184V24.5828H13.4502ZM15 23.6562H17.3437C17.4443 23.6563 17.5421 23.6884 17.6228 23.7476C17.7035 23.8068 17.7628 23.8902 17.792 23.9853C17.8211 24.0804 17.8185 24.1822 17.7846 24.2757C17.7507 24.3693 17.6873 24.4496 17.6037 24.5048C17.4859 24.5558 17.3587 24.5824 17.2301 24.5828H15V23.6562ZM18.6376 23.5752C18.5444 23.3596 18.3976 23.1707 18.211 23.0261C18.0243 22.8814 17.8037 22.7856 17.5697 22.7476L19.511 18.1282C19.6835 17.7177 19.7508 17.2714 19.707 16.829C19.6633 16.3865 19.5097 15.9616 19.26 15.5919C19.0103 15.2221 18.6722 14.919 18.2755 14.7094C17.8789 14.4997 17.4361 14.39 16.9863 14.3901H15V13.6554L15.1373 13.7911C15.1808 13.8341 15.2325 13.8682 15.2894 13.8915C15.3462 13.9148 15.4072 13.9268 15.4687 13.9268H20.2369C20.1618 14.1364 20.1387 14.3608 20.1695 14.581C20.2004 14.8013 20.2843 15.0111 20.4142 15.1927C20.544 15.3742 20.7161 15.5223 20.916 15.6246C21.1158 15.7268 21.3375 15.7801 21.5625 15.78H21.5638C21.2582 16.1804 21.0932 16.6684 21.0937 17.1699V20.764C21.093 21.0096 20.9944 21.2451 20.8191 21.4192L18.6376 23.5752ZM21.5625 14.8534C21.4698 14.8534 21.3792 14.8262 21.3021 14.7753C21.225 14.7244 21.1649 14.652 21.1294 14.5674C21.094 14.4827 21.0847 14.3895 21.1028 14.2997C21.1208 14.2098 21.1655 14.1272 21.231 14.0625C21.2966 13.9977 21.3801 13.9535 21.471 13.9357C21.562 13.9178 21.6562 13.927 21.7419 13.962C21.8275 13.9971 21.9007 14.0565 21.9523 14.1327C22.0038 14.2089 22.0312 14.2984 22.0312 14.3901C22.0311 14.5129 21.9817 14.6307 21.8938 14.7175C21.8059 14.8044 21.6868 14.8532 21.5625 14.8534V14.8534ZM24.8437 12.5368V14.8534H23.9062V12.6811C24.0845 12.5867 24.2835 12.5372 24.4857 12.5368H24.8437ZM22.9687 14.3901C22.9688 14.1677 22.9149 13.9485 22.8115 13.751C22.7081 13.5535 22.5582 13.3834 22.3745 13.2551C22.1908 13.1267 21.9786 13.0438 21.7557 13.0133C21.5329 12.9828 21.3058 13.0056 21.0937 13.0798V12.2531L22.9687 12.8708V14.3901ZM16.4062 12.0735H20.1562V13.0001H15.6629L12.9877 10.356L12.3248 11.0112L14.0625 12.7287V14.3901H11.25V8.83036H13.3781L16.0504 11.9118C16.0944 11.9625 16.149 12.0032 16.2104 12.0312C16.2718 12.0591 16.3386 12.0735 16.4062 12.0735V12.0735ZM11.0433 3.41707C11.4718 2.94907 12.0405 2.80735 12.6562 2.80735C13.0718 2.80788 13.4755 2.9446 13.804 3.19611C14.1326 3.44762 14.3675 3.79972 14.472 4.19728H12.6562C12.5319 4.19728 12.4127 4.24609 12.3248 4.33298C12.2369 4.41987 12.1875 4.53771 12.1875 4.66059V5.76094C12.1868 5.95363 12.1114 6.13871 11.9768 6.27809C11.8422 6.41747 11.6586 6.50054 11.4639 6.51019C11.2692 6.51983 11.0782 6.45533 10.9302 6.32996C10.7821 6.20458 10.6884 6.02788 10.6682 5.83623L10.5679 4.84522C10.5404 4.58747 10.5686 4.32689 10.6505 4.08071C10.7325 3.83452 10.8664 3.60832 11.0433 3.41707V3.41707ZM11.4258 7.44044C11.8763 7.43998 12.3082 7.26288 12.6268 6.94802C12.9454 6.63315 13.1245 6.20623 13.125 5.76094V5.1239H14.0625C14.0625 5.21538 14.0899 5.30482 14.1412 5.38092L14.7842 6.33429L14.3213 6.56293C14.2435 6.60144 14.1781 6.66057 14.1324 6.73373C14.0867 6.80688 14.0625 6.89115 14.0625 6.97713V7.44044C14.0624 7.56327 14.0129 7.68104 13.9251 7.76789C13.8372 7.85475 13.718 7.90361 13.5937 7.90375H11.25V7.43135C11.3084 7.43732 11.3671 7.44036 11.4258 7.44044ZM11.25 15.78V15.3167H16.9863C17.2819 15.3167 17.5728 15.3888 17.8334 15.5265C18.094 15.6643 18.3162 15.8635 18.4803 16.1064C18.6443 16.3494 18.7452 16.6286 18.7739 16.9193C18.8027 17.21 18.7584 17.5033 18.6451 17.773L16.5621 22.7296H15.2137L17.3125 17.3362C17.3398 17.2661 17.3494 17.1904 17.3405 17.1157C17.3316 17.041 17.3045 16.9696 17.2614 16.9076C17.2183 16.8456 17.1607 16.7949 17.0933 16.7599C17.026 16.7249 16.9511 16.7066 16.875 16.7066H12.1875C11.9389 16.7063 11.7007 16.6086 11.5249 16.4349C11.3492 16.2612 11.2503 16.0257 11.25 15.78ZM9.84375 17.6332H13.5937C13.7181 17.6332 13.8373 17.682 13.9252 17.7689C14.0131 17.8558 14.0625 17.9737 14.0625 18.0965C14.0625 18.2194 14.0131 18.3373 13.9252 18.4241C13.8373 18.511 13.7181 18.5598 13.5937 18.5598H9.84375C9.71943 18.5598 9.6002 18.511 9.51229 18.4241C9.42439 18.3373 9.375 18.2194 9.375 18.0965C9.375 17.9737 9.42439 17.8558 9.51229 17.7689C9.6002 17.682 9.71943 17.6332 9.84375 17.6332ZM1.875 11.1469V10.6836C1.87514 10.5608 1.92457 10.443 2.01245 10.3561C2.10033 10.2693 2.21947 10.2204 2.34375 10.2203H7.96875C8.09303 10.2204 8.21217 10.2693 8.30005 10.3561C8.38793 10.443 8.43736 10.5608 8.4375 10.6836V11.1469H1.875ZM1.875 17.6332H8.4375V18.5598H6.60475L1.875 17.7098V17.6332ZM3.39199 21.803C3.18852 21.9663 2.99502 22.1413 2.8125 22.3272V21.803H3.39199ZM7.03125 28.7526C6.53808 28.7504 6.05404 28.6211 5.62697 28.3773C5.1999 28.1335 4.8446 27.7838 4.59621 27.3627H5.79223C6.13429 27.6612 6.57491 27.826 7.03125 27.826C7.48759 27.826 7.92821 27.6612 8.27027 27.3627H9.46629C9.2179 27.7838 8.8626 28.1335 8.43553 28.3773C8.00846 28.6211 7.52441 28.7504 7.03125 28.7526V28.7526ZM19.4297 25.9815C19.2978 26.1246 19.1371 26.239 18.9579 26.3173C18.7787 26.3955 18.585 26.436 18.3891 26.4361H1.89439C1.9952 25.2265 2.48787 24.0813 3.29929 23.1704C4.11071 22.2594 5.19764 21.6314 6.39879 21.3793C6.51996 21.3533 6.64358 21.34 6.76758 21.3397H9.84375V20.4131H7.03125V19.4865H13.9629C13.8835 19.6626 13.7601 19.816 13.6043 19.9322C13.4485 20.0484 13.2655 20.1236 13.0723 20.1508C12.4364 20.2412 11.8547 20.5548 11.4334 21.0341C10.9798 21.5504 10.7812 22.1962 10.7812 22.8715C10.7808 23.4993 11.008 24.1064 11.4216 24.5828H7.5V25.5095H17.2301C17.7266 25.5058 18.2022 25.3111 18.5559 24.9666L21.4821 22.0744C21.8325 21.7261 22.0298 21.2552 22.0312 20.764V17.1699C22.0316 16.8826 22.1219 16.6023 22.2897 16.3677C22.4576 16.1331 22.6948 15.9555 22.9687 15.8594V17.6332C22.9696 18.29 23.2053 18.9253 23.6342 19.4269C24.063 19.9285 24.6575 20.2641 25.3125 20.3744V21.3397C25.0215 21.3397 24.7237 21.3223 24.4344 21.3597C23.5575 21.4456 22.7297 21.8003 22.0667 22.374C21.4037 22.9478 20.9387 23.7119 20.7367 24.5597L19.4297 25.9815ZM25.0946 25.0462H25.1184L25.6842 25.6054C25.7825 25.703 25.8378 25.835 25.8381 25.9728C25.8381 26.0755 25.8073 26.176 25.7495 26.2614C25.6918 26.3468 25.6097 26.4134 25.5136 26.4527C25.4176 26.4921 25.3119 26.5023 25.21 26.4823C25.108 26.4623 25.0143 26.4128 24.9408 26.3401L24.5094 25.9138L25.0946 25.0462ZM25.3125 28.7526C24.9063 28.7514 24.5052 28.6636 24.1364 28.4954C23.7676 28.3272 23.4398 28.0825 23.1753 27.7778C23.2495 27.742 23.3128 27.6875 23.3587 27.6197L23.7652 27.0174C23.9909 27.3446 24.3167 27.5917 24.6949 27.7224C25.0731 27.8531 25.4837 27.8606 25.8665 27.7437C26.2493 27.6269 26.5841 27.3919 26.8219 27.0731C27.0596 26.7544 27.1878 26.3688 27.1875 25.9728C27.1882 25.6982 27.1263 25.4271 27.0065 25.1794C26.9846 25.1338 26.9606 25.0896 26.9352 25.0462H27.9647C28.1144 25.4655 28.1601 25.9142 28.0981 26.3546C28.0361 26.795 27.8682 27.2143 27.6084 27.5773C27.3487 27.9404 27.0046 28.2366 26.6051 28.4411C26.2056 28.6455 25.7624 28.7524 25.3125 28.7526V28.7526Z" fill="url(#paint2_linear_0_399)"/>
<path d="M3.75 12.9996H2.8125V15.7795H3.75V12.9996Z" fill="url(#paint3_linear_0_399)"/>
<defs>
<linearGradient id="paint0_linear_0_399" x1="5.75084" y1="22.7913" x2="6.87107" y2="22.7963" gradientUnits="userSpaceOnUse">
<stop stop-color="#47C2FF"/>
<stop offset="1" stop-color="#1CB4FF" stop-opacity="0.71"/>
</linearGradient>
<linearGradient id="paint1_linear_0_399" x1="3.28835" y1="24.051" x2="5.36964" y2="24.0598" gradientUnits="userSpaceOnUse">
<stop stop-color="#47C2FF"/>
<stop offset="1" stop-color="#1CB4FF" stop-opacity="0.71"/>
</linearGradient>
<linearGradient id="paint2_linear_0_399" x1="0.9375" y1="14.8533" x2="28.3884" y2="14.9773" gradientUnits="userSpaceOnUse">
<stop stop-color="#47C2FF"/>
<stop offset="1" stop-color="#1CB4FF" stop-opacity="0.71"/>
</linearGradient>
<linearGradient id="paint3_linear_0_399" x1="2.8125" y1="14.2969" x2="3.72755" y2="14.2983" gradientUnits="userSpaceOnUse">
<stop stop-color="#47C2FF"/>
<stop offset="1" stop-color="#1CB4FF" stop-opacity="0.71"/>
</linearGradient>
</defs>
</svg>
