<!-- Generated by IcoMoon.io -->
<svg version="1.1" xmlns="http://www.w3.org/2000/svg" width="1024" height="1024" viewBox="0 0 1024 1024">
<title></title>
<g id="icomoon-ignore">
</g>
<path d="M1024 512c0-282.334-229.665-512-512-512s-512 229.666-512 512c0 282.335 229.706 512 512 512s512-229.665 512-512zM79.318 512c0-238.55 194.092-432.682 432.682-432.682s432.682 194.132 432.682 432.682c0 238.589-194.093 432.682-432.682 432.682s-432.682-194.132-432.682-432.682z"></path>
<path d="M457.273 738.452l198.295-198.295c15.387-15.468 15.387-40.451 0-55.919l-198.295-198.297c-14.833-12.73-36.765-12.73-51.598 0-16.619 14.238-18.558 39.303-4.322 55.922l170.138 170.138-170.141 170.532c-15.387 15.468-15.387 40.454 0 55.919 15.468 15.39 40.454 15.39 55.922 0z"></path>
</svg>
